<?xml version="1.0" encoding="utf-8"?>
<!-- Generator: Adobe Illustrator 22.0.1, SVG Export Plug-In . SVG Version: 6.00 Build 0)  -->
<svg version="1.1" id="Layer_1" xmlns="http://www.w3.org/2000/svg" xmlns:xlink="http://www.w3.org/1999/xlink" x="0px" y="0px"
	 viewBox="0 0 780 327.6" style="enable-background:new 0 0 780 327.6;" xml:space="preserve">
<style type="text/css">
	.st0{fill:#56D9DD;}
	.st1{fill:#9BFEF1;}
	.st2{fill:#4685B7;}
	.st3{fill:#55BDD3;}
	.st4{fill:#308087;}
	.st5{fill:#DAFFFB;}
	.st6{fill:#50F8E5;}
	.st7{fill:#32988A;}
	.st8{fill:#00BAE4;}
	.st9{fill:#4EA6C6;}
	.st10{fill:#008BCF;}
	.st11{fill:#7FFCF5;}
	.st12{fill:#3BDECD;}
	.st13{fill:#345F85;}
	.st14{fill:#01B1DD;}
	.st15{fill:#D8F6FE;}
	.st16{fill:#97FEF6;}
	.st17{fill:#DBECEC;}
	.st18{fill:#68F9E1;}
	.st19{fill:#DCFFF6;}
	.st20{fill:#1DFAF8;}
	.st21{fill:#D7F9F4;}
	.st22{fill:#BFECE6;}
	.st23{fill:#E3FEFB;}
	.st24{fill:#294A6C;}
	.st25{fill:#59E3D2;}
	.st26{fill:#4AACBC;}
	.st27{fill:#54ACCB;}
	.st28{fill:#3292A5;}
	.st29{fill:#08B6EF;}
	.st30{fill:#7EE8EC;}
	.st31{fill:#007CD3;}
	.st32{fill:#CBF4F9;}
	.st33{fill:#01C7E8;}
	.st34{fill:#A1F0ED;}
	.st35{fill:#E1E7E9;}
	.st36{fill:#63CFE2;}
	.st37{fill:#358E8C;}
	.st38{fill:#57958D;}
	.st39{fill:#04B4EA;}
	.st40{fill:#38838F;}
	.st41{fill:#3CEAF9;}
	.st42{fill:#57E3D6;}
	.st43{fill:#BEFAF2;}
	.st44{fill:#6AA0E1;}
	.st45{fill:#0696EC;}
	.st46{fill:#9DFBE4;}
	.st47{fill:#DCEAEB;}
	.st48{fill:#B3C5CE;}
	.st49{fill:#D4FEF8;}
	.st50{fill:#82E1F7;}
	.st51{fill:#A6CFD0;}
	.st52{fill:#0355C0;}
	.st53{fill:#C8FEEE;}
	.st54{fill:#D6EEEE;}
	.st55{fill:#85E6E1;}
	.st56{fill:#B0FDFC;}
	.st57{fill:#76A8A6;}
	.st58{fill:#CFFEF1;}
	.st59{fill:#53D7FE;}
	.st60{fill:#0B8FE9;}
	.st61{fill:#4DF2D4;}
	.st62{fill:#BBDDDD;}
	.st63{fill:#90A1B2;}
	.st64{fill:#73FCFA;}
	.st65{fill:#71C5D1;}
	.st66{fill:#3DDDF9;}
	.st67{fill:#B6FBF7;}
	.st68{fill:#61F0E0;}
	.st69{fill:#A7EAFE;}
	.st70{fill:#B2F1FD;}
	.st71{fill:#0E42A0;}
	.st72{fill:#65B7B5;}
	.st73{fill:#4EDDFD;}
	.st74{fill:#C1F9FD;}
	.st75{fill:#B8DAD9;}
	.st76{fill:#7BF5D0;}
	.st77{fill:#C9F8FE;}
	.st78{fill:#74D8FD;}
	.st79{fill:#A6EAFE;}
	.st80{fill:#26D4E9;}
	.st81{fill:#59D0FD;}
	.st82{fill:#B7F1FE;}
	.st83{fill:#91E1D8;}
	.st84{fill:#C7E7E9;}
	.st85{fill:#2E517B;}
	.st86{fill:#628B98;}
	.st87{fill:#95AEB6;}
	.st88{fill:#ACE2DD;}
	.st89{fill:#79F7FC;}
	.st90{fill:#CBFFED;}
	.st91{fill:#11B1F0;}
	.st92{fill:#B5FDF4;}
	.st93{fill:#1AD6E3;}
	.st94{fill:#62FAFC;}
	.st95{fill:#7ABBB8;}
	.st96{fill:#8FDED1;}
	.st97{fill:#0E478E;}
	.st98{fill:#2E796A;}
	.st99{fill:#75B3B9;}
	.st100{fill:#C3E8E1;}
	.st101{fill:#CAEEFC;}
	.st102{fill:#44D6FA;}
	.st103{fill:#4C96AE;}
	.st104{fill:#1F7F7E;}
	.st105{fill:#87CFC0;}
	.st106{fill:#87EEF5;}
	.st107{fill:#70E7EC;}
	.st108{fill:#5DA3B8;}
	.st109{fill:#C5FEE8;}
	.st110{fill:#28BAAF;}
	.st111{fill:#59DFFC;}
	.st112{fill:#AAEFFE;}
	.st113{fill:#BFEEFE;}
	.st114{fill:#BDECFE;}
	.st115{fill:#669991;}
	.st116{fill:#6FC8C7;}
	.st117{fill:#94FEE1;}
	.st118{fill:#65A7A6;}
	.st119{fill:#50DCC5;}
	.st120{fill:#96E0FC;}
	.st121{fill:#99F0F9;}
	.st122{fill:#48B2A4;}
	.st123{fill:#5AB7AD;}
	.st124{fill:#ADF7E0;}
	.st125{fill:#52E9FA;}
	.st126{fill:#67E4FD;}
	.st127{fill:#2C706B;}
	.st128{fill:#59CFFC;}
	.st129{fill:#A6F7F9;}
	.st130{fill:#7FEBE7;}
	.st131{fill:#79DEEC;}
	.st132{fill:#68E3F7;}
	.st133{fill:#23857D;}
	.st134{fill:#6EBAB3;}
	.st135{fill:#69F9C0;}
	.st136{fill:#A3DFDB;}
	.st137{fill:#72ECFD;}
	.st138{fill:#62FAEA;}
	.st139{fill:#B7FFEC;}
	.st140{fill:#4F9DBE;}
	.st141{fill:#61B9D5;}
	.st142{fill:#80E8F6;}
	.st143{fill:#8AFCEA;}
	.st144{fill:#FEFEFE;}
	.st145{fill:#6AFBE9;}
	.st146{fill:#86FEEC;}
	.st147{fill:#BEFFF6;}
	.st148{fill:#D5FFF8;}
	.st149{fill:#E0FEF8;}
	.st150{fill:#2C8387;}
	.st151{fill:#37679A;}
	.st152{fill:#9AC4E9;}
	.st153{fill:#2B5781;}
	.st154{fill:#87B6DA;}
	.st155{fill:#437FB3;}
	.st156{fill:#417BA8;}
	.st157{fill:#32698E;}
	.st158{fill:#2E5D84;}
	.st159{fill:#2A637D;}
	.st160{fill:#8DC9EC;}
	.st161{fill:#3FB0A3;}
	.st162{fill:#234468;}
	.st163{fill:#68A4C3;}
	.st164{fill:#90C7CE;}
	.st165{fill:#B0E1E0;}
	.st166{fill:#BCE7E4;}
	.st167{fill:#3FD1AE;}
	.st168{fill:#4BDEB9;}
	.st169{fill:#96F5E9;}
	.st170{fill:#D0FCF7;}
	.st171{fill:#40D3BA;}
	.st172{fill:#AEF7E7;}
	.st173{fill:#286D7E;}
	.st174{fill:#3AAAA3;}
	.st175{fill:#31858B;}
	.st176{fill:#295A6D;}
	.st177{fill:#43BBB4;}
	.st178{fill:#4DCABF;}
	.st179{fill:#01C3F3;}
	.st180{fill:#009FCA;}
	.st181{fill:#01CFDF;}
	.st182{fill:#01C0CC;}
	.st183{fill:#70E3FE;}
	.st184{fill:#4D90BF;}
	.st185{fill:#3BBCC2;}
	.st186{fill:#3CA1B8;}
	.st187{fill:#4680B7;}
	.st188{fill:#57E5F2;}
	.st189{fill:#58BEE0;}
	.st190{fill:#0078BB;}
	.st191{fill:#009DDB;}
	.st192{fill:#00A2E6;}
	.st193{fill:#006EC1;}
	.st194{fill:#00ADEF;}
	.st195{fill:#16A6ED;}
	.st196{fill:#63FEF1;}
	.st197{fill:#AEFEF8;}
	.st198{fill:#C6FCFC;}
	.st199{fill:#52F2DD;}
	.st200{fill:#2B775F;}
	.st201{fill:#B0DCDB;}
	.st202{fill:#3CAD88;}
	.st203{fill:#244F6D;}
	.st204{fill:#83ACBE;}
	.st205{fill:#96CBCF;}
	.st206{fill:#7AE1FD;}
	.st207{fill:#C8F4FE;}
	.st208{fill:#70E2FC;}
	.st209{fill:#C1F4FE;}
	.st210{fill:#008FCC;}
	.st211{fill:#A7EDFE;}
	.st212{fill:#0199D1;}
	.st213{fill:#70DFFE;}
	.st214{fill:#C1F3FE;}
	.st215{fill:#E4F9FE;}
	.st216{fill:#8DE8FE;}
	.st217{fill:#6DE1FD;}
	.st218{fill:#97EDFE;}
	.st219{fill:#23CBF7;}
	.st220{fill:#29F8F3;}
	.st221{fill:#447788;}
	.st222{fill:#91B9BF;}
	.st223{fill:#5CA0AE;}
	.st224{fill:#63C2BF;}
	.st225{fill:#9BC0D2;}
	.st226{fill:#8FC6C2;}
	.st227{fill:#A4FEEE;}
	.st228{fill:#A5FFE2;}
	.st229{fill:#3BFAEE;}
	.st230{fill:#11E9E6;}
	.st231{fill:#90FDF3;}
	.st232{fill:#86FDF7;}
	.st233{fill:#CAFEFB;}
	.st234{fill:#A6FDFC;}
	.st235{fill:#CDF6F0;}
	.st236{fill:#66B8AD;}
	.st237{fill:#63B09F;}
	.st238{fill:#3D7F99;}
	.st239{fill:#1E3C55;}
	.st240{fill:#84ACB5;}
	.st241{fill:#BDD9DF;}
	.st242{fill:#5E7488;}
	.st243{fill:#9DBEC7;}
	.st244{fill:#48637E;}
	.st245{fill:#93B8BD;}
	.st246{fill:#749DA7;}
	.st247{fill:#567D94;}
	.st248{fill:#A3C8C9;}
	.st249{fill:#99C0BD;}
	.st250{fill:#B4D0CE;}
	.st251{fill:#3E91A9;}
	.st252{fill:#3CB9B4;}
	.st253{fill:#4398AC;}
	.st254{fill:#73E4E2;}
	.st255{fill:#30B2B0;}
	.st256{fill:#FAFEFE;}
	.st257{fill:#356D92;}
	.st258{fill:#4585AF;}
	.st259{fill:#DCFDF7;}
	.st260{fill:#70E9E7;}
	.st261{fill:#DAFCF9;}
	.st262{fill:#56E8F0;}
	.st263{fill:#BAF9FB;}
	.st264{fill:#32B7B9;}
	.st265{fill:#7AEBF3;}
	.st266{fill:#B0FEF0;}
	.st267{fill:#5CD8E5;}
	.st268{fill:#8AEAF2;}
	.st269{fill:#54D6FD;}
	.st270{fill:#005BAB;}
	.st271{fill:#06ADF6;}
	.st272{fill:#CDFEF4;}
	.st273{fill:#89FCEA;}
	.st274{fill:#59F2E9;}
	.st275{fill:#2E7F89;}
	.st276{fill:#8ED2DD;}
	.st277{fill:#89F6E9;}
	.st278{fill:#36A5A3;}
	.st279{fill:#56F4E1;}
	.st280{fill:#408594;}
	.st281{fill:#6DB7CD;}
	.st282{fill:#47A4BB;}
	.st283{fill:#F8FDFD;}
	.st284{fill:#7EAA9E;}
	.st285{fill:#E1ECED;}
	.st286{fill:#A2C4BF;}
	.st287{fill:#296268;}
	.st288{fill:#CFF6FE;}
	.st289{fill:#45DDFD;}
	.st290{fill:#8FCCC9;}
	.st291{fill:#92FAFB;}
	.st292{fill:#03BDCB;}
	.st293{fill:#B1FAFC;}
	.st294{fill:#399E87;}
	.st295{fill:#75F8E6;}
	.st296{fill:#E9FEFA;}
	.st297{fill:#159BB5;}
	.st298{fill:#4CDCBF;}
	.st299{fill:#73C3E5;}
	.st300{fill:#47EADC;}
	.st301{fill:#025593;}
	.st302{fill:#067CE7;}
	.st303{fill:#004ABE;}
	.st304{fill:#0BA3D7;}
	.st305{fill:#DBFDF6;}
	.st306{fill:#74E6E8;}
	.st307{fill:#2E717F;}
	.st308{fill:#98FDF1;}
	.st309{fill:#6ED1FD;}
	.st310{fill:#1BA7F9;}
	.st311{fill:#5FEFDB;}
	.st312{fill:#79F5DD;}
	.st313{fill:#25F7FA;}
	.st314{fill:#2FF8FD;}
	.st315{fill:#4CCEAF;}
	.st316{fill:#4FE4D4;}
	.st317{fill:#0273DE;}
	.st318{fill:#00439C;}
	.st319{fill:#C0EEFE;}
	.st320{fill:#0062C2;}
	.st321{fill:#0051B5;}
	.st322{fill:#97DFFC;}
	.st323{fill:#37BFBE;}
	.st324{fill:#418AA8;}
	.st325{fill:#3E83A5;}
	.st326{fill:#4E6681;}
	.st327{fill:#CDE1E3;}
	.st328{fill:#B9EEF7;}
	.st329{fill:#2F6775;}
	.st330{fill:#05B4E9;}
	.st331{fill:#1483A8;}
	.st332{fill:#6BD0FE;}
	.st333{fill:#EBFEF7;}
	.st334{fill:#E7FEF7;}
	.st335{fill:#32BCA1;}
	.st336{fill:#D1FEEC;}
	.st337{fill:#2CD1FC;}
	.st338{fill:#2D877C;}
	.st339{fill:#4BF3DA;}
	.st340{fill:#F3FEFC;}
	.st341{fill:#ECFEFD;}
	.st342{fill:#84FEE2;}
	.st343{fill:#4286B2;}
	.st344{fill:#3FBDBE;}
	.st345{fill:#D1FCFC;}
	.st346{fill:#52EBD7;}
	.st347{fill:#F4FEFC;}
	.st348{fill:#C9FEF5;}
	.st349{fill:#113F44;}
	.st350{fill:#4FA7D0;}
	.st351{fill:#A5DDDC;}
	.st352{fill:#8CCEE8;}
	.st353{fill:#8EDEED;}
	.st354{fill:#4EA5B9;}
	.st355{fill:#84E4F0;}
	.st356{fill:#528BB3;}
	.st357{fill:#58A3AF;}
	.st358{fill:#5BABBE;}
	.st359{fill:#83DBE9;}
	.st360{fill:#81E8E3;}
	.st361{fill:#D9F6EE;}
	.st362{fill:#CDEFE8;}
	.st363{fill:#A9D7F5;}
	.st364{fill:#D6F3F3;}
	.st365{fill:#BAD2CE;}
	.st366{fill:#48F4E1;}
	.st367{fill:#7CD3C7;}
	.st368{fill:#60C3C1;}
	.st369{fill:#234263;}
	.st370{fill:#398393;}
	.st371{fill:#CBEDE9;}
	.st372{fill:#008ECB;}
	.st373{fill:#85ECFD;}
	.st374{fill:#40DDFD;}
	.st375{fill:#47E0FC;}
	.st376{fill:#3BDFFB;}
	.st377{fill:#1ADAEB;}
	.st378{fill:#38F2F7;}
	.st379{fill:#2EEFF5;}
	.st380{fill:#8DF2FC;}
	.st381{fill:#64D1E5;}
	.st382{fill:#85E8F6;}
	.st383{fill:#73D7ED;}
	.st384{fill:#7EF7EA;}
	.st385{fill:#86FAF2;}
	.st386{fill:#5FF9EA;}
	.st387{fill:#66F8E7;}
	.st388{fill:#48DDE9;}
	.st389{fill:#94FDF4;}
	.st390{fill:#C7FAFD;}
	.st391{fill:#005D9B;}
	.st392{fill:#018ED4;}
	.st393{fill:#0BB6AC;}
	.st394{fill:#23EFEB;}
	.st395{fill:#26C8A9;}
	.st396{fill:#1DEDE9;}
	.st397{fill:#628DA4;}
	.st398{fill:#8CB5BF;}
	.st399{fill:#9EC2CF;}
	.st400{fill:#608A9C;}
	.st401{fill:#20405D;}
	.st402{fill:#A2CCE0;}
	.st403{fill:#6794A0;}
	.st404{fill:#8FB5C0;}
	.st405{fill:#93C2C6;}
	.st406{fill:#38D0FD;}
	.st407{fill:#42D4FE;}
	.st408{fill:#45D5FD;}
	.st409{fill:#1CBDF2;}
	.st410{fill:#3DD4FB;}
	.st411{fill:#0398DB;}
	.st412{fill:#2D8681;}
	.st413{fill:#3A89A2;}
	.st414{fill:#2B6776;}
	.st415{fill:#6C99B0;}
	.st416{fill:#9CBECF;}
	.st417{fill:#B4D5D9;}
	.st418{fill:#C4E8E8;}
	.st419{fill:#91BAC8;}
	.st420{fill:#21B791;}
	.st421{fill:#A2FEF4;}
	.st422{fill:#69FEF2;}
	.st423{fill:#3AE2BE;}
	.st424{fill:#91B6BA;}
	.st425{fill:#72EDE7;}
	.st426{fill:#EEFEFA;}
	.st427{fill:#DEFEF7;}
	.st428{fill:#6FD8E4;}
	.st429{fill:#7FE7E8;}
	.st430{fill:#219A98;}
	.st431{fill:#53F4D7;}
	.st432{fill:#69F5E2;}
	.st433{fill:#42F8BF;}
	.st434{fill:#6AF2DD;}
	.st435{fill:#88F2F6;}
	.st436{fill:#3DEFCE;}
	.st437{fill:#01518F;}
	.st438{fill:#02A2EE;}
	.st439{fill:#7BD8FC;}
	.st440{fill:#93CCEF;}
	.st441{fill:#8AE1FE;}
	.st442{fill:#407C8C;}
	.st443{fill:#ABD2E5;}
	.st444{fill:#EEF9F9;}
	.st445{fill:#068BB2;}
	.st446{fill:#015A81;}
	.st447{fill:#E9FDFD;}
	.st448{fill:#0061B0;}
	.st449{fill:#00387B;}
	.st450{fill:#00349B;}
	.st451{fill:#00296E;}
	.st452{fill:#002B6E;}
	.st453{fill:#E8F7FE;}
	.st454{fill:#0355CD;}
	.st455{fill:#025AD5;}
	.st456{fill:#02297D;}
	.st457{fill:#012275;}
	.st458{fill:#2F6C7B;}
	.st459{fill:#B9F2E1;}
	.st460{fill:#ADFEEA;}
	.st461{fill:#BBFCEF;}
	.st462{fill:#0173AD;}
	.st463{fill:#008BCB;}
	.st464{fill:#DCFFF5;}
	.st465{fill:#5A8AA4;}
	.st466{fill:#B5DADC;}
	.st467{fill:#F0FAF9;}
	.st468{fill:#D3EFEB;}
	.st469{fill:#CFE9EA;}
	.st470{fill:#BFE2E7;}
	.st471{fill:#0069B0;}
	.st472{fill:#003C6D;}
	.st473{fill:#023F6A;}
	.st474{fill:#4BD0FA;}
	.st475{fill:#1189C3;}
	.st476{fill:#0E8AC7;}
	.st477{fill:#A3EBFE;}
	.st478{fill:#E7FAFE;}
	.st479{fill:#10B5F5;}
	.st480{fill:#018BCB;}
	.st481{fill:#015D93;}
	.st482{fill:#06A2DB;}
	.st483{fill:#0042BF;}
	.st484{fill:#0056CF;}
	.st485{fill:#0E8CEC;}
	.st486{fill:#0071ED;}
	.st487{fill:#A8C5EE;}
	.st488{fill:#01205D;}
	.st489{fill:#B7D7F2;}
	.st490{fill:#CBDEFB;}
	.st491{fill:#11A6E5;}
	.st492{fill:#C0F1FE;}
	.st493{fill:#0083BF;}
	.st494{fill:#D3F5FE;}
	.st495{fill:#07A0E6;}
	.st496{fill:#004E84;}
	.st497{fill:#002A3F;}
	.st498{fill:#0477B5;}
	.st499{fill:#002833;}
	.st500{fill:#001E2E;}
	.st501{fill:#004F67;}
	.st502{fill:#004E7D;}
	.st503{fill:#002F4B;}
	.st504{fill:#011C23;}
	.st505{fill:#006792;}
	.st506{fill:#005280;}
	.st507{fill:#00486A;}
	.st508{fill:#0166A5;}
	.st509{fill:#004053;}
	.st510{fill:#004B69;}
	.st511{fill:#00476B;}
	.st512{fill:#002F49;}
	.st513{fill:#006E92;}
	.st514{fill:#003145;}
	.st515{fill:#DCEDF3;}
	.st516{fill:#004259;}
	.st517{fill:#113443;}
	.st518{fill:#00709D;}
	.st519{fill:#3990B8;}
	.st520{fill:#284851;}
	.st521{fill:#004F6E;}
	.st522{fill:#007CA5;}
	.st523{fill:#B5C3CA;}
	.st524{fill:#7C98A3;}
	.st525{fill:#57767F;}
	.st526{fill:#B4DDE9;}
	.st527{fill:#3B626C;}
	.st528{fill:#006086;}
	.st529{fill:#0B6996;}
	.st530{fill:#51A0B8;}
	.st531{fill:#ADDAE5;}
	.st532{fill:#8FC5D6;}
	.st533{fill:#65B4CB;}
	.st534{fill:#9AAFBF;}
	.st535{fill:#78B0C9;}
	.st536{fill:#1C96C8;}
	.st537{fill:#083C4E;}
	.st538{fill:#006889;}
	.st539{fill:#5C9AB6;}
	.st540{fill:#2E80A8;}
	.st541{fill:#13566D;}
	.st542{fill:#53A6CA;}
	.st543{fill:#1A90BC;}
	.st544{fill:#89CBDD;}
	.st545{fill:#316075;}
	.st546{fill:#003C4A;}
	.st547{fill:#044857;}
	.st548{fill:#5EA5C3;}
	.st549{fill:#1483AF;}
	.st550{fill:#005979;}
	.st551{fill:#2887A7;}
	.st552{fill:#001921;}
	.st553{fill:#0E2A31;}
	.st554{fill:#005C79;}
	.st555{fill:#00678F;}
	.st556{fill:#003848;}
	.st557{fill:#006B94;}
	.st558{fill:none;}
	.st559{fill:none;stroke:#002A3F;stroke-width:0;stroke-linecap:round;stroke-linejoin:round;}
</style>
<g>
	<path d="M79.2,163.4c-5.5-2.4-9.9-5.9-13.4-10.4l12.4-14.9c5.2,7.1,11.2,10.6,17.9,10.6c9.1,0,13.6-5.3,13.6-15.9V87H75.8V69.1h56
		v62.4c0,11.8-2.9,20.7-8.8,26.6c-5.9,5.9-14.5,8.9-25.9,8.9C90.6,167,84.6,165.8,79.2,163.4z"/>
	<path d="M164.4,155.6c-7.7-7.6-11.5-18.5-11.5-32.6V69.1h22.3v53.1c0,17.2,7.1,25.9,21.5,25.9c7,0,12.3-2.1,15.9-6.3
		c3.7-4.2,5.5-10.7,5.5-19.6V69.1h22V123c0,14.1-3.8,25-11.5,32.6c-7.7,7.6-18.4,11.4-32.1,11.4C182.8,167,172.1,163.2,164.4,155.6z
		"/>
	<path d="M262.1,69.1h22.3v78.1h48.3v18.1h-70.5V69.1z"/>
	<path d="M345.1,69.1h22.3v96.2h-22.3V69.1z"/>
	<path d="M453.6,144.7h-44.7l-8.5,20.6h-22.8l42.9-96.2h22l43,96.2h-23.4L453.6,144.7z M446.6,127.8L431.4,91l-15.3,36.9H446.6z"/>
	<path d="M583.8,69.1v96.2h-18.3l-48-58.4v58.4h-22V69.1H514l47.9,58.4V69.1H583.8z"/>
	<path d="M670.1,144.7h-44.7l-8.5,20.6H594l42.9-96.2h22l43,96.2h-23.4L670.1,144.7z M663.1,127.8L647.8,91l-15.3,36.9H663.1z"/>
</g>
<g>
	<path d="M94.9,268.6c-6.3-3.4-11.2-8.2-14.7-14.3c-3.6-6.1-5.3-13-5.3-20.5c0-7.6,1.8-14.4,5.3-20.5c3.6-6.1,8.5-10.9,14.8-14.3
		c6.3-3.4,13.3-5.2,21.1-5.2c5.8,0,11.2,1,16.2,2.9c5,2,9.1,4.8,12.6,8.6l-5.3,5.3c-6.1-6.2-13.9-9.3-23.3-9.3
		c-6.2,0-11.9,1.4-17,4.3c-5.1,2.9-9.1,6.7-12,11.7c-2.9,5-4.3,10.5-4.3,16.6c0,6.2,1.4,11.7,4.3,16.6c2.9,4.9,6.9,8.8,12,11.7
		c5.1,2.9,10.8,4.3,17,4.3c9.4,0,17.2-3.1,23.3-9.4l5.3,5.3c-3.5,3.7-7.7,6.6-12.7,8.6c-5,2-10.4,3-16.3,3
		C108.2,273.7,101.2,272,94.9,268.6z"/>
	<path d="M174.2,268.5c-6.3-3.5-11.3-8.3-14.8-14.3c-3.6-6.1-5.3-12.9-5.3-20.5c0-7.6,1.8-14.4,5.3-20.5c3.6-6.1,8.5-10.9,14.8-14.3
		c6.3-3.5,13.4-5.2,21.2-5.2s14.8,1.7,21.1,5.2c6.3,3.5,11.2,8.2,14.8,14.3c3.6,6.1,5.4,13,5.4,20.5c0,7.6-1.8,14.4-5.4,20.5
		c-3.6,6.1-8.5,10.9-14.8,14.3c-6.3,3.5-13.3,5.2-21.1,5.2S180.5,272,174.2,268.5z M212.3,262.1c5-2.8,9-6.7,11.8-11.7
		c2.8-5,4.3-10.6,4.3-16.7c0-6.1-1.4-11.7-4.3-16.7c-2.9-5-6.8-8.9-11.8-11.7c-5-2.8-10.6-4.2-16.9-4.2c-6.2,0-11.9,1.4-16.9,4.2
		s-9,6.7-11.9,11.7c-2.9,5-4.3,10.6-4.3,16.7c0,6.2,1.4,11.7,4.3,16.7c2.9,5,6.9,8.9,11.9,11.7c5.1,2.8,10.7,4.2,16.9,4.2
		C201.6,266.3,207.3,264.9,212.3,262.1z"/>
	<path d="M309.1,273.1l-18-25.3c-2,0.2-4.1,0.3-6.3,0.3h-21.1v25h-8.3v-78.7h29.5c10,0,17.9,2.4,23.6,7.2c5.7,4.8,8.5,11.4,8.5,19.8
		c0,6.2-1.6,11.3-4.7,15.6c-3.1,4.2-7.6,7.3-13.3,9.2l19.2,27H309.1z M302.5,235.8c4.1-3.5,6.2-8.3,6.2-14.5
		c0-6.4-2.1-11.3-6.2-14.7c-4.1-3.4-10.1-5.1-17.9-5.1h-20.9V241h20.9C292.4,241,298.4,239.3,302.5,235.8z"/>
	<path d="M390.4,273.1l-18-25.3c-2,0.2-4.1,0.3-6.3,0.3H345v25h-8.3v-78.7h29.5c10,0,17.9,2.4,23.6,7.2c5.7,4.8,8.5,11.4,8.5,19.8
		c0,6.2-1.6,11.3-4.7,15.6c-3.1,4.2-7.6,7.3-13.3,9.2l19.2,27H390.4z M383.8,235.8c4.1-3.5,6.2-8.3,6.2-14.5
		c0-6.4-2.1-11.3-6.2-14.7c-4.1-3.4-10.1-5.1-17.9-5.1H345V241h20.9C373.7,241,379.7,239.3,383.8,235.8z"/>
	<path d="M467.4,252h-43.9l-9.4,21h-8.7l36-78.7h8.2l36,78.7h-8.8L467.4,252z M464.3,245.3L445.4,203l-18.9,42.3H464.3z"/>
	<path d="M498.6,194.3h8.3v71.5h44.1v7.2h-52.4V194.3z"/>
	<path d="M620.6,265.9v7.2h-55.7v-78.7h54v7.2h-45.7v28h40.7v7.1h-40.7v29.2H620.6z"/>
	<path d="M645,270.9c-5.4-1.9-9.5-4.3-12.4-7.4l3.3-6.4c2.8,2.8,6.6,5.2,11.4,6.9c4.7,1.8,9.6,2.6,14.6,2.6c7,0,12.3-1.3,15.9-3.9
		c3.5-2.6,5.3-5.9,5.3-10.1c0-3.1-1-5.7-2.9-7.5c-1.9-1.9-4.3-3.3-7-4.3s-6.6-2.1-11.6-3.3c-5.9-1.5-10.6-2.9-14.2-4.3
		c-3.5-1.4-6.5-3.5-9.1-6.4c-2.5-2.8-3.8-6.7-3.8-11.6c0-4,1-7.6,3.1-10.9c2.1-3.3,5.3-5.9,9.7-7.8c4.3-1.9,9.7-2.9,16.2-2.9
		c4.5,0,8.9,0.6,13.2,1.9c4.3,1.2,8,2.9,11.2,5.1l-2.8,6.6c-3.3-2.2-6.8-3.8-10.6-4.9c-3.7-1.1-7.4-1.6-11-1.6
		c-6.9,0-12.1,1.3-15.6,4c-3.5,2.7-5.2,6.1-5.2,10.3c0,3.2,1,5.7,2.9,7.6c1.9,1.9,4.3,3.4,7.2,4.4c2.9,1,6.8,2.1,11.6,3.3
		c5.8,1.4,10.4,2.8,14,4.2c3.6,1.4,6.6,3.5,9.1,6.3c2.5,2.8,3.7,6.6,3.7,11.4c0,4-1.1,7.6-3.2,10.9c-2.1,3.3-5.4,5.8-9.8,7.8
		c-4.4,1.9-9.9,2.9-16.3,2.9C656,273.7,650.4,272.8,645,270.9z"/>
</g>
</svg>
